<?xml version="1.0" encoding="UTF-8"?><svg id="Layer_2" xmlns="http://www.w3.org/2000/svg" width="150" height="150" viewBox="0 0 150 150"><defs><style>.cls-1{fill:#6ab19f;}.cls-2{fill:#e2e8f4;}.cls-3{fill:#71a7c2;}.cls-4{fill:#d1e1f5;}.cls-5{fill:#4d4d4d;}.cls-6{fill:#8a85ae;}.cls-7{fill:#fbfbfb;}.cls-8{fill:none;stroke:#bdccd4;stroke-miterlimit:10;}.cls-9{fill:#a49ece;}</style></defs><g id="Layer_6"><polygon class="cls-5" points="150 150 18.22 150 150 40.82 150 150"/><polygon class="cls-7" points="0 0 0 150 18.22 150 150 40.82 150 0 0 0"/><path class="cls-3" d="M148,2V148H2V2H148M150,0H0V150H150V0h0Z"/><rect class="cls-1" x="35" y="9.67" width="80" height="5.78"/><rect class="cls-4" x="25.11" y="23.89" width="99.78" height="60.93"/><g><polygon class="cls-2" points="124.89 61.62 124.89 84.82 96.89 84.82 124.89 61.62"/><rect class="cls-6" x="15.67" y="93.15" width="27.56" height="27.56"/><rect class="cls-9" x="61.22" y="93.15" width="27.56" height="27.56"/><polygon class="cls-6" points="61.22 114.37 61.22 93.15 86.84 93.15 61.22 114.37"/><rect class="cls-9" x="106.78" y="93.15" width="27.56" height="27.56"/></g><rect class="cls-2" x="85.33" y="133.75" width="54.89" height="9.78"/><g><circle class="cls-6" cx="13.83" cy="138.64" r="4.39"/><circle class="cls-6" cx="25.76" cy="138.64" r="4.39"/><circle class="cls-9" cx="37.69" cy="138.64" r="4.39"/><circle class="cls-9" cx="49.61" cy="138.64" r="4.39"/></g><line class="cls-8" x1="2.02" y1="127.56" x2="148.01" y2="127.56"/></g></svg>